<svg xmlns="http://www.w3.org/2000/svg" version="1.1" xmlns:xlink="http://www.w3.org/1999/xlink" xmlns:svgjs="http://svgjs.dev/svgjs" width="1000" height="1000" viewBox="0 0 1000 1000"><rect width="1000" height="1000" fill="#ffffff"></rect><g transform="matrix(0.7,0,0,0.7,149.57575757575756,282.1265587044535)"><svg viewBox="0 0 396 247" data-background-color="#ffffff" preserveAspectRatio="xMidYMid meet" height="623" width="1000" xmlns="http://www.w3.org/2000/svg" xmlns:xlink="http://www.w3.org/1999/xlink"><g id="tight-bounds" transform="matrix(1,0,0,1,0.2400000000000091,-0.09999999999999432)"><svg viewBox="0 0 395.52 247.2" height="247.2" width="395.52"><g><svg></svg></g><g><svg viewBox="0 0 395.52 247.2" height="247.2" width="395.52"><mask id="95f342b4-c046-4576-bb37-9ac2e381593e"><rect width="640" height="400" fill="white"></rect><g transform="matrix(1,0,0,1,39.55199999999999,80.49004716157205)"><svg viewBox="0 0 316.416 86.2199056768559" height="86.2199056768559" width="316.416"><g><svg viewBox="0 0 316.416 86.2199056768559" height="86.2199056768559" width="316.416"><g><svg viewBox="0 0 316.416 86.2199056768559" height="86.2199056768559" width="316.416"><g><svg viewBox="0 0 316.416 86.2199056768559" height="86.2199056768559" width="316.416"><g id="SvgjsG1098"><svg viewBox="0 0 316.416 86.2199056768559" height="86.2199056768559" width="316.416" id="SvgjsSvg1097"><g><svg viewBox="0 0 316.416 86.2199056768559" height="86.2199056768559" width="316.416"><g transform="matrix(1,0,0,1,0,0)"><svg width="316.416" viewBox="-2.200000047683716 -43.099998474121094 172.739990234375 47.79999923706055" height="86.2199056768559" data-palette-color="#77d4fc"><path d="M20.7-36.1L20.7-36.1Q24-36.1 26.13-35.13 28.25-34.15 29.9-32.85L29.9-32.85Q30.9-32.1 31.43-32.68 31.95-33.25 32.15-35.4L32.15-35.4 33.3-35.4Q33.2-33.4 33.15-30.53 33.1-27.65 33.1-22.9L33.1-22.9 31.95-22.9Q31.75-25.3 31.3-27.18 30.85-29.05 29.95-30.5 29.05-31.95 27.35-33.05L27.35-33.05Q26.3-33.75 25.13-34.15 23.95-34.55 22.7-34.55L22.7-34.55Q19.85-34.55 18-32.98 16.15-31.4 15.13-28.88 14.1-26.35 13.7-23.38 13.3-20.4 13.3-17.6L13.3-17.6Q13.3-14.8 13.7-11.83 14.1-8.85 15.13-6.33 16.15-3.8 18-2.23 19.85-0.65 22.7-0.65L22.7-0.65Q23.95-0.65 25.13-1.07 26.3-1.5 27.35-2.15L27.35-2.15Q29.85-3.7 30.73-6.3 31.6-8.9 31.95-13L31.95-13 33.1-13Q33.1-8.1 33.15-5.08 33.2-2.05 33.3 0L33.3 0 32.15 0Q31.95-2.15 31.48-2.7 31-3.25 29.9-2.55L29.9-2.55Q28.05-1.25 25.98-0.28 23.9 0.7 20.65 0.7L20.65 0.7Q15 0.7 10.75-1.45 6.5-3.6 4.15-7.65 1.8-11.7 1.8-17.4L1.8-17.4Q1.8-23 4.23-27.2 6.65-31.4 10.9-33.75 15.15-36.1 20.7-36.1ZM48.55-39.1L48.55-39.1 48.55-22.9Q49.75-24.9 51.77-25.78 53.8-26.65 56.5-26.65L56.5-26.65Q58.8-26.65 60.12-26.08 61.45-25.5 62.15-24.65L62.15-24.65Q62.9-23.75 63.25-22.25 63.6-20.75 63.6-18.2L63.6-18.2 63.6-4.65Q63.6-2.55 64.22-1.8 64.85-1.05 66.4-1.05L66.4-1.05 66.4 0Q65.4-0.05 63.37-0.13 61.35-0.2 59.4-0.2L59.4-0.2Q57.3-0.2 55.3-0.13 53.3-0.05 52.3 0L52.3 0 52.3-1.05Q53.6-1.05 54.1-1.8 54.6-2.55 54.6-4.65L54.6-4.65 54.6-20.9Q54.6-21.95 54.35-22.65 54.1-23.35 53.57-23.7 53.05-24.05 52.15-24.05L52.15-24.05Q50.75-24.05 49.65-23.05 48.55-22.05 48.55-20.45L48.55-20.45 48.55-4.65Q48.55-2.55 49.07-1.8 49.6-1.05 50.85-1.05L50.85-1.05 50.85 0Q49.9-0.05 48.05-0.13 46.2-0.2 44.25-0.2L44.25-0.2Q42.15-0.2 40-0.13 37.85-0.05 36.75 0L36.75 0 36.75-1.05Q38.3-1.05 38.92-1.8 39.55-2.55 39.55-4.65L39.55-4.65 39.55-33.1Q39.55-35.35 38.95-36.43 38.35-37.5 36.75-37.5L36.75-37.5 36.75-38.55Q38.35-38.4 39.85-38.4L39.85-38.4Q42.35-38.4 44.52-38.58 46.7-38.75 48.55-39.1ZM81.35-26.65L81.35-26.65Q85.25-26.65 88.12-25.33 91-24 92.6-21 94.2-18 94.2-12.95L94.2-12.95Q94.2-7.9 92.6-4.9 91-1.9 88.12-0.6 85.25 0.7 81.35 0.7L81.35 0.7Q77.5 0.7 74.6-0.6 71.7-1.9 70.1-4.9 68.5-7.9 68.5-12.95L68.5-12.95Q68.5-18 70.1-21 71.7-24 74.6-25.33 77.5-26.65 81.35-26.65ZM81.35-25.65L81.35-25.65Q79.85-25.65 78.85-22.65 77.85-19.65 77.85-12.95L77.85-12.95Q77.85-6.25 78.85-3.28 79.85-0.3 81.35-0.3L81.35-0.3Q82.85-0.3 83.85-3.28 84.85-6.25 84.85-12.95L84.85-12.95Q84.85-19.65 83.85-22.65 82.85-25.65 81.35-25.65ZM115.04-26.65L115.04-26.65Q116.84-26.65 117.84-25.88 118.84-25.1 119.24-23.93 119.64-22.75 119.64-21.6L119.64-21.6Q119.64-19.35 118.37-18.03 117.09-16.7 115.04-16.7L115.04-16.7Q112.84-16.7 111.72-17.7 110.59-18.7 110.59-20.3L110.59-20.3Q110.59-22 111.32-23.1 112.04-24.2 113.14-24.95L113.14-24.95Q112.24-24.95 111.54-24.6L111.54-24.6Q110.74-24.25 110.07-23.58 109.39-22.9 108.99-22.03 108.59-21.15 108.59-20.15L108.59-20.15 108.59-5.15Q108.59-2.75 109.59-1.9 110.59-1.05 112.89-1.05L112.89-1.05 112.89 0Q111.74-0.05 109.47-0.13 107.19-0.2 104.79-0.2L104.79-0.2Q102.54-0.2 100.24-0.13 97.94-0.05 96.79 0L96.79 0 96.79-1.05Q98.34-1.05 98.97-1.8 99.59-2.55 99.59-4.65L99.59-4.65 99.59-20.5Q99.59-22.75 98.99-23.83 98.39-24.9 96.79-24.9L96.79-24.9 96.79-25.95Q98.39-25.8 99.89-25.8L99.89-25.8Q102.39-25.8 104.57-25.98 106.74-26.15 108.59-26.5L108.59-26.5 108.59-22.9Q109.24-24.2 110.19-25.03 111.14-25.85 112.37-26.25 113.59-26.65 115.04-26.65ZM133.69-26.65L133.69-26.65Q138.09-26.65 140.62-24.08 143.14-21.5 143.14-15.45L143.14-15.45 127.49-15.45 127.39-16.4 135.84-16.4Q135.89-18.85 135.64-20.93 135.39-23 134.84-24.25 134.29-25.5 133.34-25.5L133.34-25.5Q131.99-25.5 131.14-23.38 130.29-21.25 130.04-16.1L130.04-16.1 130.24-15.7Q130.19-15.2 130.19-14.7 130.19-14.2 130.19-13.65L130.19-13.65Q130.19-10.15 131.06-8.2 131.94-6.25 133.27-5.5 134.59-4.75 135.94-4.75L135.94-4.75Q136.94-4.75 138.64-5.28 140.34-5.8 141.99-8.1L141.99-8.1 142.84-7.8Q142.24-5.8 140.92-3.83 139.59-1.85 137.49-0.58 135.39 0.7 132.39 0.7L132.39 0.7Q129.19 0.7 126.57-0.6 123.94-1.9 122.39-4.9 120.84-7.9 120.84-12.95L120.84-12.95Q120.84-17.75 122.54-20.78 124.24-23.8 127.17-25.23 130.09-26.65 133.69-26.65ZM155.99-26.65L155.99-26.65Q158.19-26.65 159.86-26.18 161.54-25.7 162.29-25.3L162.29-25.3Q164.04-24.25 164.44-26.6L164.44-26.6 165.44-26.6Q165.34-25.15 165.29-23.08 165.24-21 165.24-17.6L165.24-17.6 164.24-17.6Q164.04-19.45 163.36-21.25 162.69-23.05 161.41-24.25 160.14-25.45 158.09-25.45L158.09-25.45Q156.84-25.45 155.99-24.7 155.14-23.95 155.14-22.65L155.14-22.65Q155.14-21.15 156.04-19.98 156.94-18.8 158.34-17.73 159.74-16.65 161.14-15.45L161.14-15.45Q163.44-13.6 164.99-11.75 166.54-9.9 166.54-7L166.54-7Q166.54-4.75 165.16-3 163.79-1.25 161.51-0.28 159.24 0.7 156.44 0.7L156.44 0.7Q154.69 0.7 153.39 0.33 152.09-0.05 151.29-0.55L151.29-0.55Q150.49-0.95 149.91-1.18 149.34-1.4 148.79-1.4L148.79-1.4Q148.29-1.4 147.94-0.88 147.59-0.35 147.39 0.35L147.39 0.35 146.39 0.35Q146.49-1.25 146.54-3.55 146.59-5.85 146.59-9.65L146.59-9.65 147.59-9.65Q147.89-7 148.76-4.95 149.64-2.9 151.01-1.73 152.39-0.55 154.19-0.55L154.19-0.55Q155.34-0.55 156.21-1.23 157.09-1.9 157.09-3.3L157.09-3.3Q157.09-5.5 155.76-7 154.44-8.5 152.44-10.3L152.44-10.3Q150.94-11.7 149.61-13.03 148.29-14.35 147.44-15.93 146.59-17.5 146.59-19.45L146.59-19.45Q146.59-21.7 147.91-23.3 149.24-24.9 151.39-25.78 153.54-26.65 155.99-26.65Z" opacity="1" transform="matrix(1,0,0,1,0,0)" fill="black" class="wordmark-text-0" id="SvgjsPath1096" stroke-width="7" stroke="black" stroke-linejoin="round"></path></svg></g></svg></g></svg></g></svg></g><g></g></svg></g></svg></g></svg></g></mask><g transform="matrix(1,0,0,1,39.55199999999999,80.49004716157205)"><svg viewBox="0 0 316.416 86.2199056768559" height="86.2199056768559" width="316.416"><g><svg viewBox="0 0 316.416 86.2199056768559" height="86.2199056768559" width="316.416"><g><svg viewBox="0 0 316.416 86.2199056768559" height="86.2199056768559" width="316.416"><g><svg viewBox="0 0 316.416 86.2199056768559" height="86.2199056768559" width="316.416"><g id="textblocktransform"><svg viewBox="0 0 316.416 86.2199056768559" height="86.2199056768559" width="316.416" id="textblock"><g><svg viewBox="0 0 316.416 86.2199056768559" height="86.2199056768559" width="316.416"><g transform="matrix(1,0,0,1,0,0)"><svg width="316.416" viewBox="-2.200000047683716 -43.099998474121094 172.739990234375 47.79999923706055" height="86.2199056768559" data-palette-color="#77d4fc"><path d="M20.7-36.1L20.7-36.1Q24-36.1 26.13-35.13 28.25-34.15 29.9-32.85L29.9-32.85Q30.9-32.1 31.43-32.68 31.95-33.25 32.15-35.4L32.15-35.4 33.3-35.4Q33.2-33.4 33.15-30.53 33.1-27.65 33.1-22.9L33.1-22.9 31.95-22.9Q31.75-25.3 31.3-27.18 30.85-29.05 29.95-30.5 29.05-31.95 27.35-33.05L27.35-33.05Q26.3-33.75 25.13-34.15 23.95-34.55 22.7-34.55L22.7-34.55Q19.85-34.55 18-32.98 16.15-31.4 15.13-28.88 14.1-26.35 13.7-23.38 13.3-20.4 13.3-17.6L13.3-17.6Q13.3-14.8 13.7-11.83 14.1-8.85 15.13-6.33 16.15-3.8 18-2.23 19.85-0.65 22.7-0.65L22.7-0.65Q23.95-0.65 25.13-1.07 26.3-1.5 27.35-2.15L27.35-2.15Q29.85-3.7 30.73-6.3 31.6-8.9 31.95-13L31.95-13 33.1-13Q33.1-8.1 33.15-5.08 33.2-2.05 33.3 0L33.3 0 32.15 0Q31.95-2.15 31.48-2.7 31-3.25 29.9-2.55L29.9-2.55Q28.05-1.25 25.98-0.28 23.9 0.7 20.65 0.7L20.65 0.7Q15 0.7 10.75-1.45 6.5-3.6 4.15-7.65 1.8-11.7 1.8-17.4L1.8-17.4Q1.8-23 4.23-27.2 6.65-31.4 10.9-33.75 15.15-36.1 20.7-36.1ZM48.55-39.1L48.55-39.1 48.55-22.9Q49.75-24.9 51.77-25.78 53.8-26.65 56.5-26.65L56.5-26.65Q58.8-26.65 60.12-26.08 61.45-25.5 62.15-24.65L62.15-24.65Q62.9-23.75 63.25-22.25 63.6-20.75 63.6-18.2L63.6-18.2 63.6-4.65Q63.6-2.55 64.22-1.8 64.85-1.05 66.4-1.05L66.4-1.05 66.4 0Q65.4-0.05 63.37-0.13 61.35-0.2 59.4-0.2L59.4-0.2Q57.3-0.2 55.3-0.13 53.3-0.05 52.3 0L52.3 0 52.3-1.05Q53.6-1.05 54.1-1.8 54.6-2.55 54.6-4.65L54.6-4.65 54.6-20.9Q54.6-21.95 54.35-22.65 54.1-23.35 53.57-23.7 53.05-24.05 52.15-24.05L52.15-24.05Q50.75-24.05 49.65-23.05 48.55-22.05 48.55-20.45L48.55-20.45 48.55-4.65Q48.55-2.55 49.07-1.8 49.6-1.05 50.85-1.05L50.85-1.05 50.85 0Q49.9-0.05 48.05-0.13 46.2-0.2 44.25-0.2L44.25-0.2Q42.15-0.2 40-0.13 37.85-0.05 36.75 0L36.75 0 36.75-1.05Q38.3-1.05 38.92-1.8 39.55-2.55 39.55-4.65L39.55-4.65 39.55-33.1Q39.55-35.35 38.95-36.43 38.35-37.5 36.75-37.5L36.75-37.5 36.75-38.55Q38.35-38.4 39.85-38.4L39.85-38.4Q42.35-38.4 44.52-38.58 46.7-38.75 48.55-39.1ZM81.35-26.65L81.35-26.65Q85.25-26.65 88.12-25.33 91-24 92.6-21 94.2-18 94.2-12.95L94.2-12.95Q94.2-7.9 92.6-4.9 91-1.9 88.12-0.6 85.25 0.7 81.35 0.7L81.35 0.7Q77.5 0.7 74.6-0.6 71.7-1.9 70.1-4.9 68.5-7.9 68.5-12.95L68.5-12.95Q68.5-18 70.1-21 71.7-24 74.6-25.33 77.5-26.65 81.35-26.65ZM81.35-25.65L81.35-25.65Q79.85-25.65 78.85-22.65 77.85-19.65 77.85-12.95L77.85-12.95Q77.85-6.25 78.85-3.28 79.85-0.3 81.35-0.3L81.35-0.3Q82.85-0.3 83.85-3.28 84.85-6.25 84.85-12.95L84.85-12.95Q84.85-19.65 83.85-22.65 82.85-25.65 81.35-25.65ZM115.04-26.65L115.04-26.65Q116.84-26.65 117.84-25.88 118.84-25.1 119.24-23.93 119.64-22.75 119.64-21.6L119.64-21.6Q119.64-19.35 118.37-18.03 117.09-16.7 115.04-16.7L115.04-16.7Q112.84-16.7 111.72-17.7 110.59-18.7 110.59-20.3L110.59-20.3Q110.59-22 111.32-23.1 112.04-24.2 113.14-24.95L113.14-24.95Q112.24-24.95 111.54-24.6L111.54-24.6Q110.74-24.25 110.07-23.58 109.39-22.9 108.99-22.03 108.59-21.15 108.59-20.15L108.59-20.15 108.59-5.15Q108.59-2.75 109.59-1.9 110.59-1.05 112.89-1.05L112.89-1.05 112.89 0Q111.74-0.05 109.47-0.13 107.19-0.2 104.79-0.2L104.79-0.2Q102.54-0.2 100.24-0.13 97.94-0.05 96.79 0L96.79 0 96.79-1.05Q98.34-1.05 98.97-1.8 99.59-2.55 99.59-4.65L99.59-4.65 99.59-20.5Q99.59-22.75 98.99-23.83 98.39-24.9 96.79-24.9L96.79-24.9 96.79-25.95Q98.39-25.8 99.89-25.8L99.89-25.8Q102.39-25.8 104.57-25.98 106.74-26.15 108.59-26.5L108.59-26.5 108.59-22.9Q109.24-24.2 110.19-25.03 111.14-25.85 112.37-26.25 113.59-26.65 115.04-26.65ZM133.69-26.65L133.69-26.65Q138.09-26.65 140.62-24.08 143.14-21.5 143.14-15.45L143.14-15.45 127.49-15.45 127.39-16.4 135.84-16.4Q135.89-18.85 135.64-20.93 135.39-23 134.84-24.25 134.29-25.5 133.34-25.5L133.34-25.5Q131.99-25.5 131.14-23.38 130.29-21.25 130.04-16.1L130.04-16.1 130.24-15.7Q130.19-15.2 130.19-14.7 130.19-14.2 130.19-13.65L130.19-13.65Q130.19-10.15 131.06-8.2 131.94-6.25 133.27-5.5 134.59-4.75 135.94-4.75L135.94-4.75Q136.94-4.75 138.64-5.28 140.34-5.8 141.99-8.1L141.99-8.1 142.84-7.8Q142.24-5.8 140.92-3.83 139.59-1.85 137.49-0.58 135.39 0.7 132.39 0.7L132.39 0.7Q129.19 0.7 126.57-0.6 123.94-1.9 122.39-4.9 120.84-7.9 120.84-12.95L120.84-12.95Q120.84-17.75 122.54-20.78 124.24-23.8 127.17-25.23 130.09-26.65 133.69-26.65ZM155.99-26.65L155.99-26.65Q158.19-26.65 159.86-26.18 161.54-25.7 162.29-25.3L162.29-25.3Q164.04-24.25 164.44-26.6L164.44-26.6 165.44-26.6Q165.34-25.15 165.29-23.08 165.24-21 165.24-17.6L165.24-17.6 164.24-17.6Q164.04-19.45 163.36-21.25 162.69-23.05 161.41-24.25 160.14-25.45 158.09-25.45L158.09-25.45Q156.84-25.45 155.99-24.7 155.14-23.95 155.14-22.65L155.14-22.65Q155.14-21.15 156.04-19.98 156.94-18.8 158.34-17.73 159.74-16.65 161.14-15.45L161.14-15.45Q163.44-13.6 164.99-11.75 166.54-9.9 166.54-7L166.54-7Q166.54-4.75 165.16-3 163.79-1.25 161.51-0.28 159.24 0.7 156.44 0.7L156.44 0.7Q154.69 0.7 153.39 0.33 152.09-0.05 151.29-0.55L151.29-0.55Q150.49-0.95 149.91-1.18 149.34-1.4 148.79-1.4L148.79-1.4Q148.29-1.4 147.94-0.88 147.59-0.35 147.39 0.35L147.39 0.35 146.39 0.35Q146.49-1.25 146.54-3.55 146.59-5.85 146.59-9.65L146.59-9.65 147.59-9.65Q147.89-7 148.76-4.95 149.64-2.9 151.01-1.73 152.39-0.55 154.19-0.55L154.19-0.55Q155.34-0.55 156.21-1.23 157.09-1.9 157.09-3.3L157.09-3.3Q157.09-5.5 155.76-7 154.44-8.5 152.44-10.3L152.44-10.3Q150.94-11.7 149.61-13.03 148.29-14.35 147.44-15.93 146.59-17.5 146.59-19.45L146.59-19.45Q146.59-21.7 147.91-23.3 149.24-24.9 151.39-25.78 153.54-26.65 155.99-26.65Z" opacity="1" transform="matrix(1,0,0,1,0,0)" fill="#77d4fc" class="wordmark-text-0" data-fill-palette-color="primary" id="text-0"></path></svg></g></svg></g></svg></g></svg></g><g></g></svg></g></svg></g></svg></g><g mask="url(#95f342b4-c046-4576-bb37-9ac2e381593e)"><g transform="matrix(2.818390804597701, 0, 0, 2.818390804597701, 79.38758620689656, 1)"><svg xmlns="http://www.w3.org/2000/svg" xmlns:xlink="http://www.w3.org/1999/xlink" version="1.1" x="0" y="0" viewBox="7.333000183105469 6.333000183105469 84 87" enable-background="new 0 0 99 99" xml:space="preserve" height="87" width="84" class="icon-none" data-fill-palette-color="accent" id="none"><path fill-rule="evenodd" clip-rule="evenodd" d="M7.333 27.043v66.29h84v-66.29H7.333zM32.533 58.123c0-10.3 8.46-18.65 18.899-18.65 10.44 0 18.9 8.35 18.9 18.65 0 10.29-8.46 18.64-18.9 18.64C40.993 76.763 32.533 68.413 32.533 58.123zM7.333 6.333v16.57h84V6.333H7.333zM11.533 10.473h21v8.29h-21V10.473zM78.733 12.543c0-1.14 0.939-2.07 2.1-2.07s2.1 0.93 2.1 2.07c0 1.15-0.939 2.08-2.1 2.08S78.733 13.693 78.733 12.543zM70.333 12.543c0-1.14 0.939-2.07 2.1-2.07s2.101 0.93 2.101 2.07c0 1.15-0.94 2.08-2.101 2.08S70.333 13.693 70.333 12.543z" fill="#4b91f1" data-fill-palette-color="accent"></path></svg></g></g></svg></g><defs></defs></svg><rect width="395.52" height="247.2" fill="none" stroke="none" visibility="hidden"></rect></g></svg></g></svg>