<svg width="9" height="10" viewBox="0 0 9 10" fill="none" xmlns="http://www.w3.org/2000/svg">
<path d="M4.25724 0.000135397C4.19273 -0.00174973 4.12913 0.0160863 4.07454 0.0513734C4.01995 0.0866604 3.97683 0.137802 3.95068 0.19829C3.92453 0.258778 3.91652 0.325875 3.92768 0.391042C3.93884 0.456209 3.96866 0.516498 4.01334 0.564236C4.59072 1.18138 4.96003 1.97196 5.0671 2.82002C5.17418 3.66809 5.01338 4.52901 4.6083 5.27654C4.20321 6.02406 3.57516 6.61884 2.81624 6.97366C2.05732 7.32848 1.20748 7.42466 0.391349 7.24809C0.328297 7.23466 0.262776 7.24073 0.20309 7.26552C0.143404 7.29031 0.0922405 7.33271 0.0560861 7.38734C0.0199316 7.44198 0.000413715 7.50639 6.50426e-06 7.57241C-0.000400706 7.63843 0.0183211 7.70309 0.0537987 7.75818C0.51611 8.47468 1.15066 9.057 1.89629 9.44901C2.64192 9.84101 3.47347 10.0295 4.31079 9.99626C5.14812 9.96303 5.96297 9.70922 6.67681 9.25929C7.39064 8.80936 7.97939 8.1785 8.38629 7.4275C8.79319 6.6765 9.00453 5.83071 8.99993 4.97164C8.99532 4.11257 8.77494 3.26921 8.36001 2.52284C7.94509 1.77647 7.34962 1.15227 6.63101 0.710412C5.91239 0.268553 5.09487 0.0239337 4.25724 0.000135397Z" fill="#4B91F1" fill-opacity="0.6"/>
</svg>
