<svg width="20" height="20" viewBox="0 0 20 20" fill="none" xmlns="http://www.w3.org/2000/svg">
<circle cx="10" cy="10" r="7" fill="black" fill-opacity="0.6"/>
<path d="M16.0718 9.99498C16.0718 9.21105 15.9119 8.46231 15.5922 7.74874C15.2724 7.03518 14.8402 6.41876 14.2956 5.8995C13.7509 5.38023 13.1044 4.96817 12.356 4.66332C11.6075 4.35846 10.8222 4.20603 10 4.20603C9.17778 4.20603 8.39245 4.35846 7.64402 4.66332C6.89559 4.96817 6.24906 5.38023 5.70443 5.8995C5.15979 6.41876 4.7276 7.03518 4.40785 7.74874C4.0881 8.46231 3.92822 9.21105 3.92822 9.99498C3.92822 10.7789 4.0881 11.5276 4.40785 12.2412C4.7276 12.9548 5.15979 13.5712 5.70443 14.0905C6.24906 14.6097 6.89559 15.0218 7.64402 15.3266C8.39245 15.6315 9.17778 15.7839 10 15.7839C10.8222 15.7839 11.6075 15.6315 12.356 15.3266C13.1044 15.0218 13.7509 14.6097 14.2956 14.0905C14.8402 13.5712 15.2724 12.9548 15.5922 12.2412C15.9119 11.5276 16.0718 10.7789 16.0718 9.99498ZM18.9812 12.7789C18.9531 12.8794 18.8828 12.9464 18.7704 12.9799L15.6923 13.9447V17.0201C15.6923 17.1273 15.6466 17.2144 15.5553 17.2814C15.4498 17.3484 15.3479 17.3618 15.2496 17.3216L12.1715 16.3769L10.2741 18.8693C10.2038 18.9564 10.1124 19 10 19C9.88756 19 9.7962 18.9564 9.72593 18.8693L7.8285 16.3769L4.75044 17.3216C4.65205 17.3618 4.55015 17.3484 4.44474 17.2814C4.35338 17.2144 4.30771 17.1273 4.30771 17.0201V13.9447L1.22965 12.9799C1.11721 12.9464 1.04693 12.8794 1.01882 12.7789C0.983686 12.665 0.997741 12.5678 1.06099 12.4874L2.95842 9.99498L1.06099 7.50251C0.997741 7.41541 0.983686 7.31826 1.01882 7.21106C1.04693 7.11055 1.11721 7.04355 1.22965 7.01005L4.30771 6.04523V2.96985C4.30771 2.86265 4.35338 2.77554 4.44474 2.70854C4.55015 2.64154 4.65205 2.62814 4.75044 2.66834L7.8285 3.61307L9.72593 1.1206C9.78918 1.0402 9.88053 1 10 1C10.1195 1 10.2108 1.0402 10.2741 1.1206L12.1715 3.61307L15.2496 2.66834C15.3479 2.62814 15.4498 2.64154 15.5553 2.70854C15.6466 2.77554 15.6923 2.86265 15.6923 2.96985V6.04523L18.7704 7.01005C18.8828 7.04355 18.9531 7.11055 18.9812 7.21106C19.0163 7.31826 19.0023 7.41541 18.939 7.50251L17.0416 9.99498L18.939 12.4874C19.0023 12.5678 19.0163 12.665 18.9812 12.7789Z" fill="black" fill-opacity="0.6"/>
<path d="M10.2572 5.00014C10.1927 4.99825 10.1291 5.01609 10.0745 5.05137C10.0199 5.08666 9.97683 5.1378 9.95068 5.19829C9.92453 5.25878 9.91652 5.32588 9.92768 5.39104C9.93884 5.45621 9.96866 5.5165 10.0133 5.56424C10.5907 6.18138 10.96 6.97196 11.0671 7.82002C11.1742 8.66809 11.0134 9.52901 10.6083 10.2765C10.2032 11.0241 9.57516 11.6188 8.81624 11.9737C8.05732 12.3285 7.20748 12.4247 6.39135 12.2481C6.3283 12.2347 6.26278 12.2407 6.20309 12.2655C6.1434 12.2903 6.09224 12.3327 6.05609 12.3873C6.01993 12.442 6.00041 12.5064 6.00001 12.5724C5.9996 12.6384 6.01832 12.7031 6.0538 12.7582C6.51611 13.4747 7.15066 14.057 7.89629 14.449C8.64192 14.841 9.47347 15.0295 10.3108 14.9963C11.1481 14.963 11.963 14.7092 12.6768 14.2593C13.3906 13.8094 13.9794 13.1785 14.3863 12.4275C14.7932 11.6765 15.0045 10.8307 14.9999 9.97164C14.9953 9.11257 14.7749 8.26921 14.36 7.52284C13.9451 6.77647 13.3496 6.15227 12.631 5.71041C11.9124 5.26855 11.0949 5.02393 10.2572 5.00014Z" fill="white" fill-opacity="0.6"/>
</svg>
