<svg width="28" height="28" viewBox="0 0 28 28" fill="none" xmlns="http://www.w3.org/2000/svg">
<path opacity="0.3" d="M5.83325 5.83333H22.1666V22.1667H5.83325V5.83333Z" fill="#77D4FC"/>
<path d="M22.1667 3.5H5.83333C4.55 3.5 3.5 4.55 3.5 5.83333V22.1667C3.5 23.45 4.55 24.5 5.83333 24.5H22.1667C23.45 24.5 24.5 23.45 24.5 22.1667V5.83333C24.5 4.55 23.45 3.5 22.1667 3.5ZM22.1667 22.1667H5.83333V5.83333H22.1667V22.1667Z" fill="#4B91F1"/>
<path d="M8.16675 14H10.5001V19.8333H8.16675V14ZM17.5001 8.16667H19.8334V19.8333H17.5001V8.16667ZM12.8334 16.3333H15.1667V19.8333H12.8334V16.3333ZM12.8334 11.6667H15.1667V14H12.8334V11.6667Z" fill="#4B91F1"/>
</svg>
