<svg width="17" height="18" viewBox="0 0 17 18" fill="none" xmlns="http://www.w3.org/2000/svg">
<path d="M7.85626 0.000243714C7.73722 -0.00314951 7.61985 0.0289554 7.51911 0.0924721C7.41837 0.155989 7.3388 0.248044 7.29054 0.356922C7.24228 0.4658 7.2275 0.586575 7.2481 0.703876C7.26869 0.821176 7.32372 0.929697 7.40618 1.01562C8.47167 2.12649 9.15319 3.54953 9.35078 5.07604C9.54837 6.60256 9.25164 8.15222 8.5041 9.49777C7.75656 10.8433 6.59756 11.9139 5.19706 12.5526C3.79656 13.1913 2.22827 13.3644 0.722191 13.0466C0.605836 13.0224 0.484924 13.0333 0.37478 13.0779C0.264636 13.1226 0.17022 13.1989 0.103501 13.2972C0.0367815 13.3956 0.000763465 13.5115 1.20029e-05 13.6303C-0.000739459 13.7492 0.0338095 13.8656 0.0992796 13.9647C0.952424 15.2544 2.12342 16.3026 3.49939 17.0082C4.87536 17.7138 6.40991 18.0531 7.95509 17.9933C9.50028 17.9334 11.004 17.4766 12.3213 16.6667C13.6386 15.8569 14.7251 14.7213 15.476 13.3695C16.2269 12.0177 16.6169 10.4953 16.6084 8.94895C16.5999 7.40263 16.1932 5.88457 15.4275 4.54111C14.6618 3.19765 13.5629 2.07409 12.2368 1.27874C10.9107 0.483395 9.40201 0.0430806 7.85626 0.000243714Z" fill="black" fill-opacity="0.6"/>
</svg>
