<svg width="9" height="16" viewBox="0 0 9 16" fill="none" xmlns="http://www.w3.org/2000/svg">
<path d="M0.6574 1.75249L6.7474 8L0.6574 14.2475C0.548372 14.3591 0.487334 14.509 0.487334 14.665C0.487334 14.821 0.548372 14.9709 0.6574 15.0825C0.710356 15.1365 0.773562 15.1795 0.84332 15.2088C0.913078 15.2381 0.987984 15.2532 1.06365 15.2532C1.13932 15.2532 1.21422 15.2381 1.28398 15.2088C1.35374 15.1795 1.41694 15.1365 1.4699 15.0825L7.9499 8.43625C8.06367 8.31953 8.12734 8.16299 8.12734 8C8.12734 7.83701 8.06367 7.68046 7.9499 7.56375L1.47115 0.917495C1.41816 0.863065 1.35479 0.819804 1.2848 0.790265C1.21481 0.760725 1.13962 0.745507 1.06365 0.745507C0.987683 0.745507 0.912485 0.760725 0.842496 0.790265C0.772507 0.819804 0.709145 0.863065 0.65615 0.917495C0.547122 1.02912 0.486084 1.17896 0.486084 1.335C0.486084 1.49103 0.547122 1.64087 0.65615 1.75249H0.6574Z" fill="black"/>
</svg>
