<svg width="28" height="28" viewBox="0 0 28 28" fill="none" xmlns="http://www.w3.org/2000/svg">
<path opacity="0.3" d="M13.9999 3.72168L5.83325 7.35001V12.8333C5.83325 18.1067 9.30992 22.9717 13.9999 24.4183C18.6899 22.9833 22.1666 18.1067 22.1666 12.8333V7.35001L13.9999 3.72168ZM15.1666 19.8333H12.8333V12.8333H15.1666V19.8333ZM15.1666 10.5H12.8333V8.16668H15.1666V10.5Z" fill="#77D4FC"/>
<path d="M14 3.72166L22.1667 7.34999V12.8333C22.1667 18.1067 18.69 22.9717 14 24.4183C9.31 22.9717 5.83333 18.1067 5.83333 12.8333V7.34999L14 3.72166ZM14 1.16666L3.5 5.83332V12.8333C3.5 19.3083 7.98 25.3633 14 26.8333C20.02 25.3633 24.5 19.3083 24.5 12.8333V5.83332L14 1.16666ZM12.8333 8.16666H15.1667V10.5H12.8333V8.16666ZM12.8333 12.8333H15.1667V19.8333H12.8333V12.8333Z" fill="#4B91F1"/>
</svg>
