<svg width="24" height="24" viewBox="0 0 24 24" fill="none" xmlns="http://www.w3.org/2000/svg">
<path d="M12.0138 0C12.9546 0.00984643 13.8916 0.114465 14.8107 0.311393C15.0062 0.353302 15.1832 0.452816 15.317 0.59603C15.4507 0.739243 15.5345 0.919001 15.5567 1.11018L15.7746 2.98962C15.8054 3.25459 15.9005 3.50893 16.0523 3.73217C16.2041 3.95541 16.4084 4.14132 16.6486 4.27494C16.8889 4.40855 17.1585 4.48615 17.4357 4.50148C17.7129 4.51681 17.99 4.46944 18.2446 4.3632L20.0392 3.60625C20.2215 3.52914 20.4243 3.50833 20.6195 3.5467C20.8146 3.58506 20.9926 3.68071 21.1287 3.82041C22.4262 5.15093 23.3926 6.74669 23.9551 8.48762C24.0139 8.67069 24.0119 8.86679 23.9494 9.04873C23.887 9.23067 23.7671 9.38944 23.6064 9.50303L22.0157 10.6304C21.7916 10.7882 21.6093 10.9944 21.4837 11.2324C21.3581 11.4704 21.2926 11.7335 21.2926 12.0003C21.2926 12.2672 21.3581 12.5302 21.4837 12.7682C21.6093 13.0062 21.7916 13.2125 22.0157 13.3702L23.609 14.4964C23.7699 14.6101 23.8899 14.7691 23.9524 14.9513C24.0149 15.1334 24.0167 15.3298 23.9576 15.513C23.3953 17.2538 22.4294 18.8495 21.1325 20.1803C20.9967 20.3199 20.819 20.4156 20.6241 20.4542C20.4292 20.4928 20.2266 20.4723 20.0443 20.3956L18.2421 19.6362C17.9878 19.5292 17.7108 19.4811 17.4335 19.4959C17.1562 19.5107 16.8865 19.588 16.6461 19.7215C16.4057 19.855 16.2015 20.041 16.0498 20.2644C15.8982 20.4878 15.8035 20.7423 15.7733 21.0074L15.5554 22.8856C15.5337 23.0745 15.4517 23.2524 15.3207 23.3949C15.1897 23.5375 15.0161 23.6377 14.8235 23.6819C12.9669 24.106 11.0325 24.106 9.17588 23.6819C8.9831 23.6379 8.80919 23.5378 8.67794 23.3952C8.54669 23.2527 8.46453 23.0747 8.44269 22.8856L8.22606 21.0098C8.1946 20.7456 8.09904 20.4921 7.94706 20.2697C7.79508 20.0474 7.59092 19.8624 7.35097 19.7295C7.11101 19.5966 6.84196 19.5197 6.56541 19.5047C6.28886 19.4898 6.01253 19.5374 5.75859 19.6436L3.95637 20.4018C3.77392 20.4788 3.57106 20.4994 3.37587 20.4608C3.18068 20.4222 3.0028 20.3263 2.86684 20.1864C1.56974 18.8541 0.604253 17.2567 0.0430265 15.5143C-0.0160694 15.331 -0.0142492 15.1347 0.048234 14.9525C0.110717 14.7703 0.230759 14.6113 0.391677 14.4976L1.98496 13.3702C2.20908 13.2125 2.39134 13.0062 2.51697 12.7682C2.6426 12.5302 2.70807 12.2672 2.70807 12.0003C2.70807 11.7335 2.6426 11.4704 2.51697 11.2324C2.39134 10.9944 2.20908 10.7882 1.98496 10.6304L0.391677 9.50549C0.230759 9.39182 0.110717 9.23284 0.048234 9.05065C-0.0142492 8.86845 -0.0160694 8.67209 0.0430265 8.48885C0.605504 6.74792 1.57187 5.15216 2.8694 3.82164C3.00551 3.68194 3.18346 3.5863 3.37865 3.54793C3.57383 3.50956 3.77661 3.53038 3.95894 3.60749L5.75346 4.36443C6.00857 4.47061 6.28605 4.51786 6.56362 4.50239C6.8412 4.48691 7.11112 4.40913 7.35171 4.27531C7.5923 4.14149 7.79685 3.95535 7.94892 3.73185C8.101 3.50834 8.19636 3.25371 8.22734 2.98839L8.44525 1.11018C8.46725 0.918616 8.55114 0.738462 8.68515 0.594988C8.81917 0.451514 8.99659 0.351916 9.19254 0.310163C10.1193 0.113496 11.0647 0.00955338 12.0138 0ZM11.9984 8.30792C10.9785 8.30792 10.0004 8.69694 9.27929 9.3894C8.55814 10.0819 8.153 11.021 8.153 12.0003C8.153 12.9796 8.55814 13.9188 9.27929 14.6113C10.0004 15.3037 10.9785 15.6927 11.9984 15.6927C13.0183 15.6927 13.9964 15.3037 14.7175 14.6113C15.4387 13.9188 15.8438 12.9796 15.8438 12.0003C15.8438 11.021 15.4387 10.0819 14.7175 9.3894C13.9964 8.69694 13.0183 8.30792 11.9984 8.30792Z" fill="#4B91F1"/>
</svg>
