<svg width="18" height="18" viewBox="0 0 18 18" fill="none" xmlns="http://www.w3.org/2000/svg">
<path d="M15.0718 8.99498C15.0718 8.21105 14.9119 7.46231 14.5922 6.74874C14.2724 6.03518 13.8402 5.41876 13.2956 4.8995C12.7509 4.38023 12.1044 3.96817 11.356 3.66332C10.6075 3.35846 9.82222 3.20603 9 3.20603C8.17778 3.20603 7.39245 3.35846 6.64402 3.66332C5.89559 3.96817 5.24906 4.38023 4.70443 4.8995C4.15979 5.41876 3.7276 6.03518 3.40785 6.74874C3.0881 7.46231 2.92822 8.21105 2.92822 8.99498C2.92822 9.77889 3.0881 10.5276 3.40785 11.2412C3.7276 11.9548 4.15979 12.5712 4.70443 13.0905C5.24906 13.6097 5.89559 14.0218 6.64402 14.3266C7.39245 14.6315 8.17778 14.7839 9 14.7839C9.82222 14.7839 10.6075 14.6315 11.356 14.3266C12.1044 14.0218 12.7509 13.6097 13.2956 13.0905C13.8402 12.5712 14.2724 11.9548 14.5922 11.2412C14.9119 10.5276 15.0718 9.77889 15.0718 8.99498ZM17.9812 11.7789C17.9531 11.8794 17.8828 11.9464 17.7704 11.9799L14.6923 12.9447V16.0201C14.6923 16.1273 14.6466 16.2144 14.5553 16.2814C14.4498 16.3484 14.3479 16.3618 14.2496 16.3216L11.1715 15.3769L9.27407 17.8693C9.2038 17.9564 9.11244 18 9 18C8.88756 18 8.7962 17.9564 8.72593 17.8693L6.8285 15.3769L3.75044 16.3216C3.65205 16.3618 3.55015 16.3484 3.44474 16.2814C3.35338 16.2144 3.30771 16.1273 3.30771 16.0201V12.9447L0.229649 11.9799C0.117209 11.9464 0.0469338 11.8794 0.0188237 11.7789C-0.0163139 11.665 -0.00225885 11.5678 0.0609889 11.4874L1.95842 8.99498L0.0609889 6.50251C-0.00225885 6.41541 -0.0163139 6.31826 0.0188237 6.21106C0.0469338 6.11055 0.117209 6.04355 0.229649 6.01005L3.30771 5.04523V1.96985C3.30771 1.86265 3.35338 1.77554 3.44474 1.70854C3.55015 1.64154 3.65205 1.62814 3.75044 1.66834L6.8285 2.61307L8.72593 0.120603C8.78918 0.040201 8.88053 0 9 0C9.11947 0 9.21083 0.040201 9.27407 0.120603L11.1715 2.61307L14.2496 1.66834C14.3479 1.62814 14.4498 1.64154 14.5553 1.70854C14.6466 1.77554 14.6923 1.86265 14.6923 1.96985V5.04523L17.7704 6.01005C17.8828 6.04355 17.9531 6.11055 17.9812 6.21106C18.0163 6.31826 18.0023 6.41541 17.939 6.50251L16.0416 8.99498L17.939 11.4874C18.0023 11.5678 18.0163 11.665 17.9812 11.7789Z" fill="#000000"/>
</svg>
