<svg width="236" height="147" viewBox="0 0 236 147" fill="none" xmlns="http://www.w3.org/2000/svg">
<g clip-path="url(#clip0_6_252)">
<g clip-path="url(#clip1_6_252)">
<g clip-path="url(#clip2_6_252)">
<g clip-path="url(#clip3_6_252)">
<g clip-path="url(#clip4_6_252)">
<g clip-path="url(#clip5_6_252)">
<g clip-path="url(#clip6_6_252)">
<g clip-path="url(#clip7_6_252)">
<g clip-path="url(#clip8_6_252)">
<path d="M49.7307 55.2334C52.0871 55.2334 54.0257 55.5797 55.5466 56.2723C57.0604 56.9721 58.4064 57.7861 59.5846 58.7144C60.2987 59.2499 60.8449 59.3106 61.2234 58.8965C61.5947 58.4895 61.8517 57.5183 61.9945 55.9831H63.2263C63.1549 57.4112 63.1013 59.15 63.0656 61.1993C63.0299 63.2558 63.0121 65.9799 63.0121 69.3716H61.7803C61.6375 67.6579 61.4054 66.1298 61.0841 64.7874C60.7628 63.4521 60.2808 62.2668 59.6382 61.2314C58.9955 60.196 58.0672 59.2856 56.8534 58.5002C56.1036 58.0003 55.311 57.6076 54.4756 57.322C53.633 57.0364 52.7654 56.8936 51.8728 56.8936C49.8378 56.8936 48.1598 57.4541 46.8388 58.5751C45.5178 59.7034 44.4931 61.1672 43.7648 62.9666C43.0293 64.7731 42.5187 66.7368 42.2331 68.8575C41.9475 70.9854 41.8047 73.049 41.8047 75.0484C41.8047 77.0477 41.9475 79.1077 42.2331 81.2285C42.5187 83.3564 43.0293 85.32 43.7648 87.1194C44.4931 88.926 45.5178 90.3898 46.8388 91.5109C48.1598 92.6391 49.8378 93.2032 51.8728 93.2032C52.7654 93.2032 53.633 93.0532 54.4756 92.7533C55.311 92.4463 56.1036 92.0607 56.8534 91.5965C58.6385 90.4898 59.8452 89.0081 60.4736 87.1516C61.0948 85.295 61.5304 82.9029 61.7803 79.9753H63.0121C63.0121 83.4742 63.0299 86.3018 63.0656 88.4583C63.1013 90.6219 63.1549 92.4356 63.2263 93.8994H61.9945C61.8517 92.3641 61.6125 91.4002 61.2769 91.0074C60.9342 90.6147 60.3701 90.6683 59.5846 91.1681C58.2636 92.0964 56.8641 92.9068 55.386 93.5995C53.9007 94.2992 51.9978 94.6491 49.6771 94.6491C45.6427 94.6491 42.1082 93.8815 39.0734 92.3463C36.0387 90.8111 33.6823 88.5975 32.0043 85.7056C30.3263 82.8137 29.4873 79.3327 29.4873 75.2626C29.4873 71.2639 30.3548 67.765 32.09 64.766C33.818 61.767 36.1994 59.4284 39.2341 57.7504C42.2688 56.0724 45.7677 55.2334 49.7307 55.2334ZM79.5602 52.0201V69.3716C80.4171 67.9435 81.5667 66.9153 83.0091 66.2869C84.4586 65.6657 86.1474 65.3551 88.0753 65.3551C89.7177 65.3551 91.0101 65.5586 91.9526 65.9656C92.9023 66.3798 93.6271 66.8903 94.1269 67.4972C94.6625 68.1399 95.0552 68.9968 95.3051 70.0678C95.555 71.1389 95.68 72.5849 95.68 74.4057V88.9188C95.68 90.4184 95.9014 91.4359 96.3441 91.9714C96.7939 92.507 97.5722 92.7747 98.679 92.7747V93.8994C97.965 93.8637 96.8832 93.8172 95.4336 93.7601C93.9913 93.7101 92.5739 93.6851 91.1815 93.6851C89.6819 93.6851 88.2181 93.7101 86.79 93.7601C85.3619 93.8172 84.2908 93.8637 83.5768 93.8994V92.7747C84.5051 92.7747 85.1477 92.507 85.5047 91.9714C85.8618 91.4359 86.0403 90.4184 86.0403 88.9188V71.5138C86.0403 70.764 85.951 70.1392 85.7725 69.6394C85.594 69.1396 85.3155 68.7647 84.9371 68.5148C84.5658 68.2649 84.0588 68.1399 83.4161 68.1399C82.4165 68.1399 81.5239 68.4969 80.7384 69.211C79.953 69.925 79.5602 70.8533 79.5602 71.9958V88.9188C79.5602 90.4184 79.7459 91.4359 80.1172 91.9714C80.4957 92.507 81.1312 92.7747 82.0237 92.7747V93.8994C81.3454 93.8637 80.3457 93.8172 79.0247 93.7601C77.7037 93.7101 76.347 93.6851 74.9546 93.6851C73.4551 93.6851 71.9377 93.7101 70.4025 93.7601C68.8673 93.8172 67.707 93.8637 66.9215 93.8994V92.7747C68.0283 92.7747 68.803 92.507 69.2457 91.9714C69.6956 91.4359 69.9205 90.4184 69.9205 88.9188V58.4466C69.9205 56.84 69.7063 55.6511 69.2779 54.8799C68.8494 54.1159 68.064 53.7339 66.9215 53.7339V52.6092C68.064 52.7163 69.1708 52.7699 70.2418 52.7699C72.027 52.7699 73.6943 52.7056 75.2438 52.5771C76.8004 52.4557 78.2392 52.2701 79.5602 52.0201ZM114.692 65.3551C117.476 65.3551 119.894 65.8264 121.943 66.7689C123.999 67.7186 125.599 69.2645 126.741 71.4067C127.884 73.5488 128.455 76.4229 128.455 80.0289C128.455 83.6348 127.884 86.5089 126.741 88.6511C125.599 90.7932 123.999 92.3284 121.943 93.2567C119.894 94.185 117.476 94.6491 114.692 94.6491C111.943 94.6491 109.533 94.185 107.462 93.2567C105.391 92.3284 103.784 90.7932 102.642 88.6511C101.5 86.5089 100.928 83.6348 100.928 80.0289C100.928 76.4229 101.5 73.5488 102.642 71.4067C103.784 69.2645 105.391 67.7186 107.462 66.7689C109.533 65.8264 111.943 65.3551 114.692 65.3551ZM114.692 66.4262C113.621 66.4262 112.728 67.4972 112.014 69.6394C111.3 71.7816 110.943 75.2447 110.943 80.0289C110.943 84.813 111.3 88.2655 112.014 90.3862C112.728 92.5141 113.621 93.578 114.692 93.578C115.763 93.578 116.655 92.5141 117.369 90.3862C118.083 88.2655 118.44 84.813 118.44 80.0289C118.44 75.2447 118.083 71.7816 117.369 69.6394C116.655 67.4972 115.763 66.4262 114.692 66.4262ZM150.776 65.3551C152.062 65.3551 153.061 65.63 153.775 66.1798C154.489 66.7368 154.989 67.433 155.275 68.2684C155.56 69.111 155.703 69.9429 155.703 70.764C155.703 72.3707 155.25 73.6452 154.343 74.5878C153.429 75.5375 152.24 76.0123 150.776 76.0123C149.205 76.0123 148.02 75.6553 147.22 74.9412C146.413 74.2272 146.01 73.2989 146.01 72.1564C146.01 70.9426 146.271 69.9429 146.792 69.1574C147.306 68.372 147.956 67.7115 148.741 67.1759C148.099 67.1759 147.527 67.3009 147.028 67.5508C146.456 67.8007 145.931 68.1649 145.453 68.6433C144.968 69.1289 144.582 69.6822 144.296 70.3035C144.011 70.9318 143.868 71.6031 143.868 72.3171V88.3833C143.868 90.097 144.225 91.2574 144.939 91.8643C145.653 92.4713 146.831 92.7747 148.474 92.7747V93.8994C147.652 93.8637 146.431 93.8172 144.81 93.7601C143.182 93.7101 141.511 93.6851 139.798 93.6851C138.191 93.6851 136.567 93.7101 134.924 93.7601C133.282 93.8172 132.05 93.8637 131.229 93.8994V92.7747C132.336 92.7747 133.114 92.507 133.564 91.9714C134.007 91.4359 134.228 90.4184 134.228 88.9188V71.9422C134.228 70.3356 134.014 69.1467 133.586 68.3755C133.157 67.6115 132.372 67.2295 131.229 67.2295V66.1048C132.372 66.2119 133.478 66.2655 134.549 66.2655C136.335 66.2655 138.005 66.2012 139.562 66.0727C141.112 65.9513 142.547 65.7657 143.868 65.5157V69.3716C144.332 68.4434 144.903 67.6829 145.582 67.0902C146.26 66.5047 147.038 66.0691 147.917 65.7835C148.788 65.4979 149.741 65.3551 150.776 65.3551ZM170.752 65.3551C173.894 65.3551 176.368 66.2726 178.175 68.1078C179.974 69.95 180.874 73.0312 180.874 77.3512H164.111L164.004 76.3337H173.055C173.09 74.5842 173.019 72.9669 172.841 71.4817C172.662 70.0036 172.376 68.8182 171.984 67.9257C171.591 67.0331 171.055 66.5868 170.377 66.5868C169.413 66.5868 168.628 67.3437 168.021 68.8575C167.414 70.3785 167.021 72.9776 166.843 76.655L167.057 77.0834C167.021 77.4404 167.003 77.7975 167.003 78.1545C167.003 78.5115 167.003 78.8864 167.003 79.2791C167.003 81.7783 167.314 83.7241 167.935 85.1165C168.563 86.5089 169.352 87.4729 170.302 88.0084C171.245 88.544 172.198 88.8117 173.162 88.8117C173.876 88.8117 174.84 88.6225 176.054 88.2441C177.268 87.8728 178.464 86.8659 179.642 85.2236L180.552 85.5449C180.124 86.973 179.438 88.3904 178.496 89.7971C177.546 91.2109 176.322 92.3713 174.822 93.2781C173.323 94.1921 171.502 94.6491 169.36 94.6491C167.075 94.6491 164.997 94.185 163.126 93.2567C161.248 92.3284 159.756 90.7932 158.649 88.6511C157.542 86.5089 156.989 83.6348 156.989 80.0289C156.989 76.6014 157.596 73.8059 158.809 71.6423C160.023 69.4859 161.676 67.8971 163.769 66.876C165.854 65.8621 168.181 65.3551 170.752 65.3551ZM194.637 65.3551C196.208 65.3551 197.59 65.5229 198.782 65.8585C199.982 66.2012 200.849 66.5154 201.385 66.801C202.634 67.5508 203.402 67.0867 203.688 65.4086H204.759C204.687 66.444 204.634 67.7007 204.598 69.1788C204.562 70.6641 204.545 72.6206 204.545 75.0484H203.473C203.331 73.7274 203.016 72.4242 202.531 71.1389C202.052 69.8536 201.356 68.7825 200.442 67.9257C199.535 67.0688 198.35 66.6404 196.886 66.6404C195.994 66.6404 195.244 66.9081 194.637 67.4437C194.03 67.9792 193.727 68.7111 193.727 69.6394C193.727 70.7105 194.048 71.6637 194.691 72.4992C195.333 73.3418 196.154 74.1451 197.154 74.9091C198.154 75.6803 199.153 76.4943 200.153 77.3512C201.795 78.6722 203.17 79.9932 204.277 81.3142C205.384 82.6352 205.937 84.331 205.937 86.4018C205.937 88.0084 205.444 89.4365 204.459 90.6861C203.481 91.9357 202.177 92.9068 200.549 93.5995C198.929 94.2992 197.118 94.6491 195.119 94.6491C193.869 94.6491 192.781 94.517 191.852 94.2528C190.924 93.9815 190.174 93.6673 189.603 93.3103C189.032 93.0246 188.539 92.7997 188.125 92.6355C187.718 92.4784 187.318 92.3998 186.925 92.3998C186.568 92.3998 186.265 92.5855 186.015 92.9568C185.765 93.3353 185.569 93.7744 185.426 94.2742H184.355C184.426 93.1318 184.48 91.7394 184.515 90.097C184.551 88.4547 184.569 86.2768 184.569 83.5634H185.64C185.854 85.4557 186.272 87.1337 186.893 88.5975C187.522 90.0613 188.325 91.211 189.303 92.0464C190.288 92.889 191.424 93.3103 192.709 93.3103C193.53 93.3103 194.251 93.0675 194.873 92.5819C195.501 92.1035 195.815 91.3645 195.815 90.3648C195.815 88.7939 195.34 87.4729 194.391 86.4018C193.448 85.3307 192.263 84.1525 190.835 82.8672C189.764 81.8676 188.753 80.8929 187.804 79.9432C186.861 79.0006 186.086 77.9653 185.479 76.8371C184.872 75.716 184.569 74.4593 184.569 73.0669C184.569 71.4602 185.04 70.0857 185.983 68.9432C186.932 67.8007 188.175 66.9153 189.71 66.2869C191.245 65.6657 192.888 65.3551 194.637 65.3551Z" fill="white"/>
</g>
</g>
</g>
</g>
</g>
</g>
<mask id="mask0_6_252" style="mask-type:luminance" maskUnits="userSpaceOnUse" x="0" y="-1" width="381" height="239">
<path d="M380.315 -0.0593872H0.281677V237.462H380.315V-0.0593872Z" fill="white"/>
<g clip-path="url(#clip9_6_252)">
<g clip-path="url(#clip10_6_252)">
<g clip-path="url(#clip11_6_252)">
<g clip-path="url(#clip12_6_252)">
<g clip-path="url(#clip13_6_252)">
<g clip-path="url(#clip14_6_252)">
<g clip-path="url(#clip15_6_252)">
<path d="M49.7307 55.2334C52.0871 55.2334 54.0257 55.5797 55.5466 56.2723C57.0604 56.9721 58.4064 57.7861 59.5846 58.7144C60.2987 59.2499 60.8449 59.3106 61.2234 58.8965C61.5947 58.4895 61.8517 57.5183 61.9945 55.9831H63.2263C63.1549 57.4112 63.1013 59.15 63.0656 61.1993C63.0299 63.2558 63.0121 65.9799 63.0121 69.3716H61.7803C61.6375 67.6579 61.4054 66.1298 61.0841 64.7874C60.7628 63.4521 60.2808 62.2668 59.6382 61.2314C58.9955 60.196 58.0672 59.2856 56.8534 58.5002C56.1036 58.0003 55.311 57.6076 54.4756 57.322C53.633 57.0364 52.7654 56.8936 51.8728 56.8936C49.8378 56.8936 48.1598 57.4541 46.8388 58.5751C45.5178 59.7034 44.4931 61.1672 43.7648 62.9666C43.0293 64.7731 42.5187 66.7368 42.2331 68.8575C41.9475 70.9854 41.8047 73.049 41.8047 75.0484C41.8047 77.0477 41.9475 79.1077 42.2331 81.2285C42.5187 83.3564 43.0293 85.32 43.7648 87.1194C44.4931 88.926 45.5178 90.3898 46.8388 91.5109C48.1598 92.6391 49.8378 93.2032 51.8728 93.2032C52.7654 93.2032 53.633 93.0532 54.4756 92.7533C55.311 92.4463 56.1036 92.0607 56.8534 91.5965C58.6385 90.4898 59.8452 89.0081 60.4736 87.1516C61.0948 85.295 61.5304 82.9029 61.7803 79.9753H63.0121C63.0121 83.4742 63.0299 86.3018 63.0656 88.4583C63.1013 90.6219 63.1549 92.4356 63.2263 93.8994H61.9945C61.8517 92.3641 61.6125 91.4002 61.2769 91.0074C60.9342 90.6147 60.3701 90.6683 59.5846 91.1681C58.2636 92.0964 56.8641 92.9068 55.386 93.5995C53.9007 94.2992 51.9978 94.6491 49.6771 94.6491C45.6427 94.6491 42.1082 93.8815 39.0734 92.3463C36.0387 90.8111 33.6823 88.5975 32.0043 85.7056C30.3263 82.8137 29.4873 79.3327 29.4873 75.2626C29.4873 71.2639 30.3548 67.765 32.09 64.766C33.818 61.767 36.1994 59.4284 39.2341 57.7504C42.2688 56.0724 45.7677 55.2334 49.7307 55.2334ZM79.5602 52.0201V69.3716C80.4171 67.9435 81.5667 66.9153 83.0091 66.2869C84.4586 65.6657 86.1474 65.3551 88.0753 65.3551C89.7177 65.3551 91.0101 65.5586 91.9526 65.9656C92.9023 66.3798 93.6271 66.8903 94.1269 67.4972C94.6625 68.1399 95.0552 68.9968 95.3051 70.0678C95.555 71.1389 95.68 72.5849 95.68 74.4057V88.9188C95.68 90.4184 95.9014 91.4359 96.3441 91.9714C96.7939 92.507 97.5722 92.7747 98.679 92.7747V93.8994C97.965 93.8637 96.8832 93.8172 95.4336 93.7601C93.9913 93.7101 92.5739 93.6851 91.1815 93.6851C89.6819 93.6851 88.2181 93.7101 86.79 93.7601C85.3619 93.8172 84.2908 93.8637 83.5768 93.8994V92.7747C84.5051 92.7747 85.1477 92.507 85.5047 91.9714C85.8618 91.4359 86.0403 90.4184 86.0403 88.9188V71.5138C86.0403 70.764 85.951 70.1392 85.7725 69.6394C85.594 69.1396 85.3155 68.7647 84.9371 68.5148C84.5658 68.2649 84.0588 68.1399 83.4161 68.1399C82.4165 68.1399 81.5239 68.4969 80.7384 69.211C79.953 69.925 79.5602 70.8533 79.5602 71.9958V88.9188C79.5602 90.4184 79.7459 91.4359 80.1172 91.9714C80.4957 92.507 81.1312 92.7747 82.0237 92.7747V93.8994C81.3454 93.8637 80.3457 93.8172 79.0247 93.7601C77.7037 93.7101 76.347 93.6851 74.9546 93.6851C73.4551 93.6851 71.9377 93.7101 70.4025 93.7601C68.8673 93.8172 67.707 93.8637 66.9215 93.8994V92.7747C68.0283 92.7747 68.803 92.507 69.2457 91.9714C69.6956 91.4359 69.9205 90.4184 69.9205 88.9188V58.4466C69.9205 56.84 69.7063 55.6511 69.2779 54.8799C68.8494 54.1159 68.064 53.7339 66.9215 53.7339V52.6092C68.064 52.7163 69.1708 52.7699 70.2418 52.7699C72.027 52.7699 73.6943 52.7056 75.2438 52.5771C76.8004 52.4557 78.2392 52.2701 79.5602 52.0201ZM114.692 65.3551C117.476 65.3551 119.894 65.8264 121.943 66.7689C123.999 67.7186 125.599 69.2645 126.741 71.4067C127.884 73.5488 128.455 76.4229 128.455 80.0289C128.455 83.6348 127.884 86.5089 126.741 88.6511C125.599 90.7932 123.999 92.3284 121.943 93.2567C119.894 94.185 117.476 94.6491 114.692 94.6491C111.943 94.6491 109.533 94.185 107.462 93.2567C105.391 92.3284 103.784 90.7932 102.642 88.6511C101.5 86.5089 100.928 83.6348 100.928 80.0289C100.928 76.4229 101.5 73.5488 102.642 71.4067C103.784 69.2645 105.391 67.7186 107.462 66.7689C109.533 65.8264 111.943 65.3551 114.692 65.3551ZM114.692 66.4262C113.621 66.4262 112.728 67.4972 112.014 69.6394C111.3 71.7816 110.943 75.2447 110.943 80.0289C110.943 84.813 111.3 88.2655 112.014 90.3862C112.728 92.5141 113.621 93.578 114.692 93.578C115.763 93.578 116.655 92.5141 117.369 90.3862C118.083 88.2655 118.44 84.813 118.44 80.0289C118.44 75.2447 118.083 71.7816 117.369 69.6394C116.655 67.4972 115.763 66.4262 114.692 66.4262ZM150.776 65.3551C152.062 65.3551 153.061 65.63 153.775 66.1798C154.489 66.7368 154.989 67.433 155.275 68.2684C155.56 69.111 155.703 69.9429 155.703 70.764C155.703 72.3707 155.25 73.6452 154.343 74.5878C153.429 75.5375 152.24 76.0123 150.776 76.0123C149.205 76.0123 148.02 75.6553 147.22 74.9412C146.413 74.2272 146.01 73.2989 146.01 72.1564C146.01 70.9426 146.271 69.9429 146.792 69.1574C147.306 68.372 147.956 67.7115 148.741 67.1759C148.099 67.1759 147.527 67.3009 147.028 67.5508C146.456 67.8007 145.931 68.1649 145.453 68.6433C144.968 69.1289 144.582 69.6822 144.296 70.3035C144.011 70.9318 143.868 71.6031 143.868 72.3171V88.3833C143.868 90.097 144.225 91.2574 144.939 91.8643C145.653 92.4713 146.831 92.7747 148.474 92.7747V93.8994C147.652 93.8637 146.431 93.8172 144.81 93.7601C143.182 93.7101 141.511 93.6851 139.798 93.6851C138.191 93.6851 136.567 93.7101 134.924 93.7601C133.282 93.8172 132.05 93.8637 131.229 93.8994V92.7747C132.336 92.7747 133.114 92.507 133.564 91.9714C134.007 91.4359 134.228 90.4184 134.228 88.9188V71.9422C134.228 70.3356 134.014 69.1467 133.586 68.3755C133.157 67.6115 132.372 67.2295 131.229 67.2295V66.1048C132.372 66.2119 133.478 66.2655 134.549 66.2655C136.335 66.2655 138.005 66.2012 139.562 66.0727C141.112 65.9513 142.547 65.7657 143.868 65.5157V69.3716C144.332 68.4434 144.903 67.6829 145.582 67.0902C146.26 66.5047 147.038 66.0691 147.917 65.7835C148.788 65.4979 149.741 65.3551 150.776 65.3551ZM170.752 65.3551C173.894 65.3551 176.368 66.2726 178.175 68.1078C179.974 69.95 180.874 73.0312 180.874 77.3512H164.111L164.004 76.3337H173.055C173.09 74.5842 173.019 72.9669 172.841 71.4817C172.662 70.0036 172.376 68.8182 171.984 67.9257C171.591 67.0331 171.055 66.5868 170.377 66.5868C169.413 66.5868 168.628 67.3437 168.021 68.8575C167.414 70.3785 167.021 72.9776 166.843 76.655L167.057 77.0834C167.021 77.4404 167.003 77.7975 167.003 78.1545C167.003 78.5115 167.003 78.8864 167.003 79.2791C167.003 81.7783 167.314 83.7241 167.935 85.1165C168.563 86.5089 169.352 87.4729 170.302 88.0084C171.245 88.544 172.198 88.8117 173.162 88.8117C173.876 88.8117 174.84 88.6225 176.054 88.2441C177.268 87.8728 178.464 86.8659 179.642 85.2236L180.552 85.5449C180.124 86.973 179.438 88.3904 178.496 89.7971C177.546 91.2109 176.322 92.3713 174.822 93.2781C173.323 94.1921 171.502 94.6491 169.36 94.6491C167.075 94.6491 164.997 94.185 163.126 93.2567C161.248 92.3284 159.756 90.7932 158.649 88.6511C157.542 86.5089 156.989 83.6348 156.989 80.0289C156.989 76.6014 157.596 73.8059 158.809 71.6423C160.023 69.4859 161.676 67.8971 163.769 66.876C165.854 65.8621 168.181 65.3551 170.752 65.3551ZM194.637 65.3551C196.208 65.3551 197.59 65.5229 198.782 65.8585C199.982 66.2012 200.849 66.5154 201.385 66.801C202.634 67.5508 203.402 67.0867 203.688 65.4086H204.759C204.687 66.444 204.634 67.7007 204.598 69.1788C204.562 70.6641 204.545 72.6206 204.545 75.0484H203.473C203.331 73.7274 203.016 72.4242 202.531 71.1389C202.052 69.8536 201.356 68.7825 200.442 67.9257C199.535 67.0688 198.35 66.6404 196.886 66.6404C195.994 66.6404 195.244 66.9081 194.637 67.4437C194.03 67.9792 193.727 68.7111 193.727 69.6394C193.727 70.7105 194.048 71.6637 194.691 72.4992C195.333 73.3418 196.154 74.1451 197.154 74.9091C198.154 75.6803 199.153 76.4943 200.153 77.3512C201.795 78.6722 203.17 79.9932 204.277 81.3142C205.384 82.6352 205.937 84.331 205.937 86.4018C205.937 88.0084 205.444 89.4365 204.459 90.6861C203.481 91.9357 202.177 92.9068 200.549 93.5995C198.929 94.2992 197.118 94.6491 195.119 94.6491C193.869 94.6491 192.781 94.517 191.852 94.2528C190.924 93.9815 190.174 93.6673 189.603 93.3103C189.032 93.0246 188.539 92.7997 188.125 92.6355C187.718 92.4784 187.318 92.3998 186.925 92.3998C186.568 92.3998 186.265 92.5855 186.015 92.9568C185.765 93.3353 185.569 93.7744 185.426 94.2742H184.355C184.426 93.1318 184.48 91.7394 184.515 90.097C184.551 88.4547 184.569 86.2768 184.569 83.5634H185.64C185.854 85.4557 186.272 87.1337 186.893 88.5975C187.522 90.0613 188.325 91.211 189.303 92.0464C190.288 92.889 191.424 93.3103 192.709 93.3103C193.53 93.3103 194.251 93.0675 194.873 92.5819C195.501 92.1035 195.815 91.3645 195.815 90.3648C195.815 88.7939 195.34 87.4729 194.391 86.4018C193.448 85.3307 192.263 84.1525 190.835 82.8672C189.764 81.8676 188.753 80.8929 187.804 79.9432C186.861 79.0006 186.086 77.9653 185.479 76.8371C184.872 75.716 184.569 74.4593 184.569 73.0669C184.569 71.4602 185.04 70.0857 185.983 68.9432C186.932 67.8007 188.175 66.9153 189.71 66.2869C191.245 65.6657 192.888 65.3551 194.637 65.3551Z" fill="black" stroke="black" stroke-width="22.2929" stroke-linejoin="round"/>
</g>
</g>
</g>
</g>
</g>
</g>
</g>
</mask>
<g mask="url(#mask0_6_252)">
<g clip-path="url(#clip16_6_252)">
<path fill-rule="evenodd" clip-rule="evenodd" d="M47.4222 35.194V146.135H188.002V35.194H47.4222ZM89.5962 87.2085C89.5962 69.9708 103.755 55.9965 121.225 55.9965C138.697 55.9965 152.855 69.9708 152.855 87.2085C152.855 104.43 138.697 118.404 121.225 118.404C103.755 118.404 89.5962 104.43 89.5962 87.2085ZM47.4222 0.534424V28.2654H188.002V0.534424H47.4222ZM54.4512 7.463H89.5962V21.3369H54.4512V7.463ZM166.915 10.9273C166.915 9.01941 168.486 7.463 170.429 7.463C172.373 7.463 173.944 9.01941 173.944 10.9273C173.944 12.8519 172.373 14.4083 170.429 14.4083C168.486 14.4083 166.915 12.8519 166.915 10.9273ZM152.857 10.9273C152.857 9.01941 154.429 7.463 156.372 7.463C158.315 7.463 159.888 9.01941 159.888 10.9273C159.888 12.8519 158.315 14.4083 156.372 14.4083C154.429 14.4083 152.857 12.8519 152.857 10.9273Z" fill="white"/>
</g>
</g>
</g>
</g>
</g>
<defs>
<clipPath id="clip0_6_252">
<rect width="235.424" height="146.669" fill="white"/>
</clipPath>
<clipPath id="clip1_6_252">
<rect width="234.861" height="146.788" fill="white" transform="translate(0.281677 -0.0593872)"/>
</clipPath>
<clipPath id="clip2_6_252">
<rect width="234.861" height="146.788" fill="white" transform="translate(0.281677 -0.0593872)"/>
</clipPath>
<clipPath id="clip3_6_252">
<rect width="187.889" height="51.1976" fill="white" transform="translate(23.7678 47.7358)"/>
</clipPath>
<clipPath id="clip4_6_252">
<rect width="187.889" height="51.1976" fill="white" transform="translate(23.7678 47.7358)"/>
</clipPath>
<clipPath id="clip5_6_252">
<rect width="187.889" height="51.1976" fill="white" transform="translate(23.7678 47.7358)"/>
</clipPath>
<clipPath id="clip6_6_252">
<rect width="187.889" height="51.1976" fill="white" transform="translate(23.7678 47.7358)"/>
</clipPath>
<clipPath id="clip7_6_252">
<rect width="187.889" height="51.1976" fill="white" transform="translate(23.7678 47.7358)"/>
</clipPath>
<clipPath id="clip8_6_252">
<rect width="187.889" height="51.1976" fill="white" transform="translate(23.7678 47.7358)"/>
</clipPath>
<clipPath id="clip9_6_252">
<rect width="187.889" height="51.1976" fill="white" transform="translate(23.7678 47.7358)"/>
</clipPath>
<clipPath id="clip10_6_252">
<rect width="187.889" height="51.1976" fill="white" transform="translate(23.7678 47.7358)"/>
</clipPath>
<clipPath id="clip11_6_252">
<rect width="187.889" height="51.1976" fill="white" transform="translate(23.7678 47.7358)"/>
</clipPath>
<clipPath id="clip12_6_252">
<rect width="187.889" height="51.1976" fill="white" transform="translate(23.7678 47.7358)"/>
</clipPath>
<clipPath id="clip13_6_252">
<rect width="187.889" height="51.1976" fill="white" transform="translate(23.7678 47.7358)"/>
</clipPath>
<clipPath id="clip14_6_252">
<rect width="187.889" height="51.1976" fill="white" transform="translate(23.7678 47.7358)"/>
</clipPath>
<clipPath id="clip15_6_252">
<rect width="187.889" height="51.1976" fill="white" transform="translate(23.7678 47.7358)"/>
</clipPath>
<clipPath id="clip16_6_252">
<rect width="140.58" height="145.6" fill="white" transform="translate(47.4222 0.534424)"/>
</clipPath>
</defs>
</svg>
